# xmcd
#
# Track frame offsets: 
#        150
#        15635
#        47870
#        60057
#        80417
#        92960
#        105692
#        129312
#        149295
#
# Disc length: 2322 seconds
#
# Revision: 2
# Processed by: cddbd v1.5.2PL0 Copyright (c) Steve Scherf et al.
# Submitted via: ExactAudioCopy v0.95b4
#
DISCID=6d091009
DTITLE=Creation - Pure Electric Soul
DYEAR=1977
DGENRE=Blues
TTITLE0=Electric Soul Man
TTITLE1=Tokyo Sally
TTITLE2=Step Into The Light
TTITLE3=All I Can Do Is Play The Blues
TTITLE4=Spinning Toe-Hold
TTITLE5=I'm A Rambler
TTITLE6=Frankie And Johnny
TTITLE7=See You In The Night And Leave You At Dawn
TTITLE8=Happenings Ten Years Time Ago
EXTD=
EXTT0=
EXTT1=
EXTT2=
EXTT3=
EXTT4=
EXTT5=
EXTT6=
EXTT7=
EXTT8=
PLAYORDER=
